<svg data-v-423bf9ae="" xmlns="http://www.w3.org/2000/svg" viewBox="0 0 332 90" class="iconLeft"><!----><!----><!----><g data-v-423bf9ae="" id="6a5977a4-609d-4c98-897b-cf12878f17de" fill="#000000" transform="matrix(4.415010987956055,0,0,4.415010987956055,119.69037885938911,-3.4988967690019876)"><path d="M7.45 14.13L7.45 14.13Q7.67 14.46 7.81 14.62L7.81 14.62L7.81 14.62Q7.95 14.78 8.18 14.85L8.18 14.85L8.18 15.15L8.18 15.15Q7.06 15.09 6.71 15.09L6.71 15.09L6.71 15.09Q6.24 15.09 4.90 15.15L4.90 15.15L4.90 14.85L4.90 14.85Q5.10 14.85 5.21 14.78L5.21 14.78L5.21 14.78Q5.32 14.71 5.32 14.59L5.32 14.59L5.32 14.59Q5.32 14.52 5.25 14.38L5.25 14.38L3.86 11.87L3.86 11.87Q3.72 11.63 3.57 11.55L3.57 11.55L3.57 11.55Q3.42 11.47 3.18 11.44L3.18 11.44L3.18 13.85L3.18 13.85Q3.18 14.42 3.36 14.64L3.36 14.64L3.36 14.64Q3.54 14.85 4.02 14.85L4.02 14.85L4.02 15.15L4.02 15.15Q2.62 15.09 2.20 15.09L2.20 15.09L2.20 15.09Q1.72 15.09 0.27 15.15L0.27 15.15L0.27 14.85L0.27 14.85Q0.76 14.85 0.96 14.64L0.96 14.64L0.96 14.64Q1.16 14.42 1.16 13.85L1.16 13.85L1.16 5.87L1.16 5.87Q1.16 5.22 0.96 4.93L0.96 4.93L0.96 4.93Q0.76 4.63 0.27 4.63L0.27 4.63L0.27 4.34L0.27 4.34Q0.71 4.38 1.13 4.38L1.13 4.38L1.13 4.38Q2.35 4.38 3.18 4.19L3.18 4.19L3.18 11.17L3.18 11.17Q3.46 11.14 3.66 11.06L3.66 11.06L3.66 11.06Q3.86 10.98 4.02 10.81L4.02 10.81L5.08 9.77L5.08 9.77Q5.54 9.31 5.54 8.92L5.54 8.92L5.54 8.92Q5.54 8.60 5.25 8.41L5.25 8.41L5.25 8.41Q4.96 8.22 4.47 8.19L4.47 8.19L4.47 7.91L4.47 7.91Q5.24 7.95 6.10 7.95L6.10 7.95L6.10 7.95Q7.27 7.95 7.74 7.91L7.74 7.91L7.74 8.19L7.74 8.19Q6.92 8.37 5.99 9.27L5.99 9.27L5.10 10.19L7.45 14.13ZM13.73 7.71L13.73 7.71Q14.80 7.71 15.27 8.26L15.27 8.26L15.27 8.26Q15.51 8.53 15.61 8.95L15.61 8.95L15.61 8.95Q15.71 9.37 15.71 10.08L15.71 10.08L15.71 13.85L15.71 13.85Q15.71 14.42 15.91 14.64L15.91 14.64L15.91 14.64Q16.11 14.85 16.60 14.85L16.60 14.85L16.60 15.15L16.60 15.15Q15.20 15.09 14.76 15.09L14.76 15.09L14.76 15.09Q14.34 15.09 12.94 15.15L12.94 15.15L12.94 14.85L12.94 14.85Q13.36 14.85 13.52 14.64L13.52 14.64L13.52 14.64Q13.69 14.42 13.69 13.85L13.69 13.85L13.69 9.49L13.69 9.49Q13.69 8.92 13.50 8.62L13.50 8.62L13.50 8.62Q13.31 8.33 12.82 8.33L12.82 8.33L12.82 8.33Q12.25 8.33 11.84 8.80L11.84 8.80L11.84 8.80Q11.44 9.27 11.44 9.95L11.44 9.95L11.44 13.85L11.44 13.85Q11.44 14.42 11.61 14.64L11.61 14.64L11.61 14.64Q11.77 14.85 12.19 14.85L12.19 14.85L12.19 15.15L12.19 15.15Q10.91 15.09 10.46 15.09L10.46 15.09L10.46 15.09Q10.04 15.09 8.53 15.15L8.53 15.15L8.53 14.85L8.53 14.85Q9.03 14.85 9.23 14.64L9.23 14.64L9.23 14.64Q9.42 14.42 9.42 13.85L9.42 13.85L9.42 9.44L9.42 9.44Q9.42 8.79 9.23 8.50L9.23 8.50L9.23 8.50Q9.03 8.20 8.53 8.20L8.53 8.20L8.53 7.91L8.53 7.91Q8.97 7.95 9.39 7.95L9.39 7.95L9.39 7.95Q10.64 7.95 11.44 7.76L11.44 7.76L11.44 9.02L11.44 9.02Q12.07 7.71 13.73 7.71L13.73 7.71ZM20.73 7.71L20.73 7.71Q22.34 7.71 23.25 8.63L23.25 8.63L23.25 8.63Q24.16 9.55 24.16 11.54L24.16 11.54L24.16 11.54Q24.16 13.52 23.25 14.43L23.25 14.43L23.25 14.43Q22.34 15.34 20.73 15.34L20.73 15.34L20.73 15.34Q19.14 15.34 18.22 14.43L18.22 14.43L18.22 14.43Q17.30 13.52 17.30 11.54L17.30 11.54L17.30 11.54Q17.30 9.55 18.22 8.63L18.22 8.63L18.22 8.63Q19.14 7.71 20.73 7.71L20.73 7.71ZM20.73 7.99L20.73 7.99Q20.13 7.99 19.78 8.87L19.78 8.87L19.78 8.87Q19.42 9.74 19.42 11.54L19.42 11.54L19.42 11.54Q19.42 13.33 19.78 14.20L19.78 14.20L19.78 14.20Q20.13 15.06 20.73 15.06L20.73 15.06L20.73 15.06Q21.35 15.06 21.70 14.20L21.70 14.20L21.70 14.20Q22.05 13.34 22.05 11.54L22.05 11.54L22.05 11.54Q22.05 9.73 21.69 8.86L21.69 8.86L21.69 8.86Q21.34 7.99 20.73 7.99L20.73 7.99ZM31.67 9.25L31.67 9.25Q31.39 9.25 31.19 9.06L31.19 9.06L31.19 9.06Q31.00 8.88 31.00 8.53L31.00 8.53L31.00 8.53Q31.00 8.19 31.16 7.84L31.16 7.84L31.16 7.84Q30.83 7.98 30.61 8.15L30.61 8.15L30.61 8.15Q30.39 8.33 30.24 8.60L30.24 8.60L30.24 8.60Q30.67 9.11 30.67 9.94L30.67 9.94L30.67 9.94Q30.67 11.05 29.91 11.61L29.91 11.61L29.91 11.61Q29.15 12.17 27.89 12.17L27.89 12.17L27.64 12.17L27.64 12.17Q27.06 12.50 27.06 12.91L27.06 12.91L27.06 12.91Q27.06 13.36 27.62 13.36L27.62 13.36L29.15 13.36L29.15 13.36Q30.38 13.36 31.12 13.81L31.12 13.81L31.12 13.81Q31.85 14.27 31.85 15.20L31.85 15.20L31.85 15.20Q31.85 15.92 31.40 16.50L31.40 16.50L31.40 16.50Q30.94 17.08 30.02 17.43L30.02 17.43L30.02 17.43Q29.09 17.78 27.75 17.78L27.75 17.78L27.75 17.78Q26.39 17.78 25.57 17.44L25.57 17.44L25.57 17.44Q24.75 17.09 24.75 16.45L24.75 16.45L24.75 16.45Q24.75 16.02 25.14 15.67L25.14 15.67L25.14 15.67Q25.54 15.33 26.31 15.13L26.31 15.13L26.43 15.36L26.43 15.36Q25.93 15.78 25.93 16.32L25.93 16.32L25.93 16.32Q25.93 16.91 26.46 17.23L26.46 17.23L26.46 17.23Q26.99 17.54 27.93 17.54L27.93 17.54L27.93 17.54Q28.91 17.54 29.52 17.15L29.52 17.15L29.52 17.15Q30.13 16.76 30.13 16.04L30.13 16.04L30.13 16.04Q30.13 15.58 29.79 15.32L29.79 15.32L29.79 15.32Q29.44 15.05 28.59 15.05L28.59 15.05L27.72 15.05L27.72 15.05Q26.82 15.05 26.32 14.75L26.32 14.75L26.32 14.75Q25.82 14.45 25.82 13.83L25.82 13.83L25.82 13.83Q25.82 13.31 26.18 12.91L26.18 12.91L26.18 12.91Q26.54 12.50 27.29 12.12L27.29 12.12L27.29 12.12Q26.28 12.00 25.69 11.45L25.69 11.45L25.69 11.45Q25.10 10.91 25.10 9.94L25.10 9.94L25.10 9.94Q25.10 8.83 25.87 8.27L25.87 8.27L25.87 8.27Q26.63 7.71 27.89 7.71L27.89 7.71L27.89 7.71Q29.29 7.71 30.03 8.37L30.03 8.37L30.03 8.37Q30.30 7.99 30.69 7.77L30.69 7.77L30.69 7.77Q31.08 7.55 31.49 7.55L31.49 7.55L31.49 7.55Q31.91 7.55 32.15 7.79L32.15 7.79L32.15 7.79Q32.40 8.04 32.40 8.43L32.40 8.43L32.40 8.43Q32.40 8.82 32.18 9.04L32.18 9.04L32.18 9.04Q31.96 9.25 31.67 9.25L31.67 9.25ZM27.89 11.91L27.89 11.91Q28.28 11.91 28.48 11.47L28.48 11.47L28.48 11.47Q28.69 11.02 28.69 9.94L28.69 9.94L28.69 9.94Q28.69 8.86 28.48 8.41L28.48 8.41L28.48 8.41Q28.28 7.97 27.89 7.97L27.89 7.97L27.89 7.97Q27.50 7.97 27.29 8.41L27.29 8.41L27.29 8.41Q27.09 8.86 27.09 9.94L27.09 9.94L27.09 9.94Q27.09 11.02 27.29 11.47L27.29 11.47L27.29 11.47Q27.50 11.91 27.89 11.91L27.89 11.91ZM36.89 14.20L36.89 14.20Q38.04 14.20 38.74 13.08L38.74 13.08L38.99 13.16L38.99 13.16Q38.71 14.07 37.99 14.71L37.99 14.71L37.99 14.71Q37.27 15.34 36.19 15.34L36.19 15.34L36.19 15.34Q34.71 15.34 33.83 14.40L33.83 14.40L33.83 14.40Q32.96 13.45 32.96 11.61L32.96 11.61L32.96 11.61Q32.96 9.72 33.89 8.71L33.89 8.71L33.89 8.71Q34.83 7.71 36.39 7.71L36.39 7.71L36.39 7.71Q39.02 7.71 39.02 10.82L39.02 10.82L35.08 10.82L35.08 10.82Q35.07 11.03 35.07 11.48L35.07 11.48L35.07 11.48Q35.07 12.40 35.33 13.02L35.33 13.02L35.33 13.02Q35.59 13.64 36.00 13.92L36.00 13.92L36.00 13.92Q36.41 14.20 36.89 14.20L36.89 14.20ZM36.30 8.01L36.30 8.01Q35.80 8.01 35.47 8.63L35.47 8.63L35.47 8.63Q35.14 9.25 35.06 10.56L35.06 10.56L37.25 10.56L37.25 10.56Q37.28 9.45 37.04 8.73L37.04 8.73L37.04 8.73Q36.79 8.01 36.30 8.01L36.30 8.01ZM45.04 7.71L45.04 7.71Q46.10 7.71 46.58 8.26L46.58 8.26L46.58 8.26Q46.82 8.53 46.91 8.95L46.91 8.95L46.91 8.95Q47.01 9.37 47.01 10.08L47.01 10.08L47.01 13.85L47.01 13.85Q47.01 14.42 47.22 14.64L47.22 14.64L47.22 14.64Q47.42 14.85 47.91 14.85L47.91 14.85L47.91 15.15L47.91 15.15Q46.51 15.09 46.06 15.09L46.06 15.09L46.06 15.09Q45.64 15.09 44.24 15.15L44.24 15.15L44.24 14.85L44.24 14.85Q44.66 14.85 44.83 14.64L44.83 14.64L44.83 14.64Q45.00 14.42 45.00 13.85L45.00 13.85L45.00 9.49L45.00 9.49Q45.00 8.92 44.81 8.62L44.81 8.62L44.81 8.62Q44.62 8.33 44.13 8.33L44.13 8.33L44.13 8.33Q43.55 8.33 43.15 8.80L43.15 8.80L43.15 8.80Q42.74 9.27 42.74 9.95L42.74 9.95L42.74 13.85L42.74 13.85Q42.74 14.42 42.91 14.64L42.91 14.64L42.91 14.64Q43.08 14.85 43.50 14.85L43.50 14.85L43.50 15.15L43.50 15.15Q42.21 15.09 41.76 15.09L41.76 15.09L41.76 15.09Q41.34 15.09 39.83 15.15L39.83 15.15L39.83 14.85L39.83 14.85Q40.33 14.85 40.53 14.64L40.53 14.64L40.53 14.64Q40.73 14.42 40.73 13.85L40.73 13.85L40.73 9.44L40.73 9.44Q40.73 8.79 40.53 8.50L40.53 8.50L40.53 8.50Q40.33 8.20 39.83 8.20L39.83 8.20L39.83 7.91L39.83 7.91Q40.28 7.95 40.70 7.95L40.70 7.95L40.70 7.95Q41.94 7.95 42.74 7.76L42.74 7.76L42.74 9.02L42.74 9.02Q43.37 7.71 45.04 7.71L45.04 7.71Z"></path></g><defs data-v-423bf9ae=""><linearGradient data-v-423bf9ae="" gradientTransform="rotate(25)" id="5135f02a-6129-4256-b4c7-9ee37d5b435d" x1="0%" y1="0%" x2="100%" y2="0%"><stop data-v-423bf9ae="" offset="0%" style="stop-color: rgb(0, 125, 232); stop-opacity: 1;"></stop><stop data-v-423bf9ae="" offset="100%" style="stop-color: rgb(161, 195, 219); stop-opacity: 1;"></stop></linearGradient></defs><g data-v-423bf9ae="" id="46c1934d-451a-4ca1-8d87-a27da1b64c42" transform="matrix(1.198242446102869,0,0,1.198242446102869,-9.10387403867363,-15.578143034254857)" stroke="none" fill="url(#5135f02a-6129-4256-b4c7-9ee37d5b435d)"><path d="M49.569 22.967c-9.975-5.691-20.677-9.125-31.045-9.962v58.351c10.367.814 21.05 4.154 31.045 9.699V22.967zM82.444 13.005c-10.368.838-21.071 4.271-31.045 9.962v58.087c9.993-5.545 20.679-8.885 31.045-9.699v-58.35z"></path><path d="M49.229 84.073c.814.278 1.671.29 2.485.012 11.657-5.043 23.865-7.313 35.798-6.79V19.524a67.09 67.09 0 0 0-3.24-.055v53.594l-.852.056c-10.672.697-21.732 4.177-32.021 10.048a2.826 2.826 0 0 1-1.83 0c-10.29-5.871-21.349-9.351-32.021-10.048l-.854-.056V19.469a65.788 65.788 0 0 0-3.239.055v57.771c11.932-.524 24.114 1.735 35.774 6.778z"></path><path d="M92.579 26.009c-1.07-.149-2.157-.228-3.237-.335v53.55l-.968-.056c-12.195-.699-25.06 1.777-36.975 7.065l-.916.381-.915-.381c-11.917-5.288-24.781-7.765-36.976-7.065l-.967.056v-53.55c-1.081.108-2.168.187-3.238.335v58.707a4.876 4.876 0 0 1 1.044.748c12.951-1.75 26.393-1.536 39.18 2.651a19.022 19.022 0 0 1 1.873-.095c.661 0 1.285.037 1.872.095 12.785-4.188 26.229-4.401 39.179-2.651 0 0 .474-.462 1.044-.748V26.009z"></path></g><!----></svg>