<svg xmlns="http://www.w3.org/2000/svg" version="1.1" xmlns:xlink="http://www.w3.org/1999/xlink" xmlns:svgjs="http://svgjs.dev/svgjs" width="1500" height="450" viewBox="0 0 1500 450"><g transform="matrix(1,0,0,1,-0.9090909090909918,-1.4033428374729056)"><svg viewBox="0 0 396 119" data-background-color="#2979ff" preserveAspectRatio="xMidYMid meet" height="450" width="1500" xmlns="http://www.w3.org/2000/svg" xmlns:xlink="http://www.w3.org/1999/xlink"><g id="tight-bounds" transform="matrix(1,0,0,1,0.2400000000000091,0.37110621702061053)"><svg viewBox="0 0 395.52 118.25773809118274" height="118.25773809118274" width="395.52"><g><svg viewBox="0 0 615.6461234266937 184.07392299010397" height="118.25773809118274" width="395.52"><g transform="matrix(1,0,0,1,220.12612342669377,53.85836600399213)"><svg viewBox="0 0 395.52 76.3571909821197" height="76.3571909821197" width="395.52"><g id="textblocktransform"><svg viewBox="0 0 395.52 76.3571909821197" height="76.3571909821197" width="395.52" id="textblock"><g><svg viewBox="0 0 395.52 76.3571909821197" height="76.3571909821197" width="395.52"><g transform="matrix(1,0,0,1,0,0)"><svg width="395.52" viewBox="1.4 -36.85 192.93 37.25" height="76.3571909821197" data-palette-color="#ffffff"><path d="M9.45 0L5 0 5-25.35 7.55-25.35Q8.3-25.35 8.6-25.08 8.9-24.8 8.95-24.1L8.95-24.1 9.25-20.15Q10.55-22.8 12.45-24.3 14.35-25.8 16.95-25.8L16.95-25.8Q18-25.8 18.85-25.55 19.7-25.3 20.4-24.9L20.4-24.9 19.85-21.55Q19.8-21.25 19.58-21.1 19.35-20.95 19.05-20.95L19.05-20.95Q18.7-20.95 17.7-21.18 16.7-21.4 15.95-21.4L15.95-21.4Q13.65-21.4 12.08-20.05 10.5-18.7 9.45-16.15L9.45-16.15 9.45 0ZM13.05 0L7.95 0 8.5-3.9 12.25-3.1Q12.65-3.05 12.85-2.78 13.05-2.5 13.05-2.05L13.05-2.05 13.05 0ZM6.5 0L1.4 0 1.4-2.05Q1.4-2.5 1.6-2.78 1.8-3.05 2.2-3.1L2.2-3.1 5.95-3.9 6.5 0ZM1.4-25.35L6.5-25.35 5.95-21.45 2.2-22.25Q1.8-22.35 1.6-22.6 1.4-22.85 1.4-23.3L1.4-23.3 1.4-25.35ZM34.9 0.35L34.9 0.35Q31.25 0.35 28.52-1.3 25.8-2.95 24.3-6 22.8-9.05 22.8-13.2L22.8-13.2Q22.8-16.75 24.25-19.6 25.7-22.45 28.37-24.1 31.05-25.75 34.65-25.75L34.65-25.75Q37.8-25.75 40.15-24.35 42.5-22.95 43.82-20.43 45.15-17.9 45.15-14.4L45.15-14.4Q45.15-13.35 44.92-13 44.7-12.65 44.05-12.65L44.05-12.65 27.2-12.65Q27.2-12.5 27.2-12.33 27.2-12.15 27.2-12L27.2-12Q27.45-7.8 29.55-5.48 31.65-3.15 35.25-3.15L35.25-3.15Q36.8-3.15 38.32-3.78 39.85-4.4 41.02-5 42.2-5.6 42.7-5.6L42.7-5.6Q43.25-5.6 43.55-5.2L43.55-5.2 44.8-3.55Q43.8-2.25 42.12-1.38 40.45-0.5 38.55-0.08 36.65 0.35 34.9 0.35ZM27.35-15.45L27.35-15.45 41.15-15.45Q41.15-18.55 39.45-20.5 37.75-22.45 34.75-22.45L34.75-22.45Q31.5-22.45 29.65-20.6 27.8-18.75 27.35-15.45ZM56.8 0.4L56.8 0.4Q54.99 0.4 52.77 0 50.55-0.4 48.95-1L48.95-1 48.95-4.7 51.14-4.2Q51.8-3.75 53.22-3.28 54.64-2.8 56.55-2.8L56.55-2.8Q59.39-2.8 60.74-3.98 62.09-5.15 62.09-6.85L62.09-6.85Q62.09-8.35 61.2-9.15 60.3-9.95 58.8-10.45 57.3-10.95 55.55-11.5L55.55-11.5Q53.74-12.1 52.24-12.9 50.74-13.7 49.84-14.98 48.95-16.25 48.95-18.2L48.95-18.2Q48.95-20.45 50.12-22.15 51.3-23.85 53.32-24.8 55.34-25.75 57.89-25.75L57.89-25.75Q59.34-25.75 61.12-25.4 62.89-25.05 65-24.35L65-24.35 65-21.35 62.34-21.7Q61.3-22 60.22-22.2 59.14-22.4 58.14-22.4L58.14-22.4Q56.7-22.4 55.57-21.95 54.45-21.5 53.8-20.7 53.14-19.9 53.14-18.85L53.14-18.85Q53.14-17.45 54.22-16.63 55.3-15.8 56.84-15.3 58.39-14.8 59.8-14.35L59.8-14.35Q61.45-13.85 62.92-13.05 64.39-12.25 65.34-10.95 66.3-9.65 66.3-7.55L66.3-7.55Q66.3-5.3 65.12-3.5 63.95-1.7 61.82-0.65 59.7 0.4 56.8 0.4ZM62.3-18.65L61.8-22.4 65-21.75 65-17.85 63.34-17.85Q62.84-17.85 62.59-18.07 62.34-18.3 62.3-18.65L62.3-18.65ZM51.64-6.8L52.14-3.05 48.95-3.7 48.95-7.6 50.59-7.6Q51.14-7.6 51.37-7.38 51.59-7.15 51.64-6.8L51.64-6.8ZM81.94 0.35L81.94 0.35Q78.29 0.35 75.57-1.3 72.84-2.95 71.34-6 69.84-9.05 69.84-13.2L69.84-13.2Q69.84-16.75 71.29-19.6 72.74-22.45 75.42-24.1 78.09-25.75 81.69-25.75L81.69-25.75Q84.84-25.75 87.19-24.35 89.54-22.95 90.87-20.43 92.19-17.9 92.19-14.4L92.19-14.4Q92.19-13.35 91.97-13 91.74-12.65 91.09-12.65L91.09-12.65 74.24-12.65Q74.24-12.5 74.24-12.33 74.24-12.15 74.24-12L74.24-12Q74.49-7.8 76.59-5.48 78.69-3.15 82.29-3.15L82.29-3.15Q83.84-3.15 85.37-3.78 86.89-4.4 88.07-5 89.24-5.6 89.74-5.6L89.74-5.6Q90.29-5.6 90.59-5.2L90.59-5.2 91.84-3.55Q90.84-2.25 89.17-1.38 87.49-0.5 85.59-0.08 83.69 0.35 81.94 0.35ZM74.39-15.45L74.39-15.45 88.19-15.45Q88.19-18.55 86.49-20.5 84.79-22.45 81.79-22.45L81.79-22.45Q78.54-22.45 76.69-20.6 74.84-18.75 74.39-15.45ZM102.79 0.4L102.79 0.4Q100.79 0.4 99.19-0.38 97.59-1.15 96.64-2.65 95.69-4.15 95.69-6.35L95.69-6.35Q95.69-7.85 96.52-9.22 97.34-10.6 99.19-11.7L99.19-11.7Q101.04-12.75 104.02-13.45 106.99-14.15 111.29-14.25L111.29-14.25 111.29-16.2Q111.29-19.15 110.02-20.68 108.74-22.2 106.29-22.2L106.29-22.2Q104.99-22.2 103.56-21.53 102.14-20.85 100.94-20.18 99.74-19.5 99.04-19.5L99.04-19.5Q98.59-19.5 98.27-19.75 97.94-20 97.74-20.35L97.74-20.35 96.94-21.75Q99.04-23.8 101.47-24.8 103.89-25.8 106.84-25.8L106.84-25.8Q109.69-25.8 111.64-24.6 113.59-23.4 114.62-21.25 115.64-19.1 115.64-16.2L115.64-16.2 115.64 0 113.69 0Q113.04 0 112.64-0.2 112.24-0.4 112.09-1.05L112.09-1.05 111.59-3.4Q109.59-1.6 107.59-0.6 105.59 0.4 102.79 0.4ZM104.09-2.75L104.09-2.75Q106.34-2.75 108.04-3.65 109.74-4.55 111.29-6.15L111.29-6.15 111.29-11.4Q108.69-11.35 106.59-11.03 104.49-10.7 103.02-10.13 101.54-9.55 100.77-8.68 99.99-7.8 99.99-6.55L99.99-6.55Q99.99-4.55 101.17-3.65 102.34-2.75 104.09-2.75ZM119.24 0L114.14 0 114.69-3.9 118.44-3.1Q118.84-3.05 119.04-2.78 119.24-2.5 119.24-2.05L119.24-2.05 119.24 0ZM129.34 0L124.89 0 124.89-25.35 127.44-25.35Q128.19-25.35 128.49-25.08 128.79-24.8 128.84-24.1L128.84-24.1 129.14-20.15Q130.44-22.8 132.34-24.3 134.24-25.8 136.84-25.8L136.84-25.8Q137.89-25.8 138.74-25.55 139.59-25.3 140.29-24.9L140.29-24.9 139.74-21.55Q139.69-21.25 139.46-21.1 139.24-20.95 138.94-20.95L138.94-20.95Q138.59-20.95 137.59-21.18 136.59-21.4 135.84-21.4L135.84-21.4Q133.54-21.4 131.96-20.05 130.39-18.7 129.34-16.15L129.34-16.15 129.34 0ZM132.94 0L127.84 0 128.39-3.9 132.14-3.1Q132.54-3.05 132.74-2.78 132.94-2.5 132.94-2.05L132.94-2.05 132.94 0ZM126.39 0L121.29 0 121.29-2.05Q121.29-2.5 121.49-2.78 121.69-3.05 122.09-3.1L122.09-3.1 125.84-3.9 126.39 0ZM121.29-25.35L126.39-25.35 125.84-21.45 122.09-22.25Q121.69-22.35 121.49-22.6 121.29-22.85 121.29-23.3L121.29-23.3 121.29-25.35ZM153.89 0.35L153.89 0.35Q150.59 0.35 148.06-1.28 145.54-2.9 144.11-5.85 142.69-8.8 142.69-12.7L142.69-12.7Q142.69-16.5 144.04-19.45 145.39-22.4 148.04-24.08 150.69-25.75 154.64-25.75L154.64-25.75Q156.19-25.75 158.24-25.23 160.29-24.7 162.14-23.95L162.14-23.95 162.14-21.25 159.54-21.4Q158.54-21.75 157.41-22 156.29-22.25 154.89-22.25L154.89-22.25Q152.34-22.25 150.66-21.08 148.99-19.9 148.14-17.75 147.29-15.6 147.29-12.7L147.29-12.7Q147.29-8.35 149.19-5.73 151.09-3.1 154.64-3.1L154.64-3.1Q156.59-3.1 157.84-3.73 159.09-4.35 159.89-4.98 160.69-5.6 161.14-5.6L161.14-5.6Q161.39-5.6 161.61-5.5 161.84-5.4 161.99-5.2L161.99-5.2 163.24-3.55Q161.59-1.55 159.14-0.6 156.69 0.35 153.89 0.35ZM159.44-18.15L158.94-21.9 162.14-21.25 162.14-17.35 160.49-17.35Q159.99-17.35 159.74-17.57 159.49-17.8 159.44-18.15L159.44-18.15ZM174.08 0L169.63 0 169.63-36.85 174.08-36.85 174.08-21.95Q175.73-23.65 177.71-24.7 179.68-25.75 182.23-25.75L182.23-25.75Q185.03-25.75 186.91-24.55 188.78-23.35 189.76-21.18 190.73-19 190.73-16.15L190.73-16.15 190.73 0 186.28 0 186.28-16.15Q186.28-19 184.96-20.6 183.63-22.2 180.93-22.2L180.93-22.2Q178.98-22.2 177.26-21.25 175.53-20.3 174.08-18.65L174.08-18.65 174.08 0ZM194.33 0L189.23 0 189.78-3.9 193.53-3.1Q193.93-3.05 194.13-2.78 194.33-2.5 194.33-2.05L194.33-2.05 194.33 0ZM171.13 0L166.03 0 166.03-2.05Q166.03-2.5 166.23-2.78 166.43-3.05 166.83-3.1L166.83-3.1 170.58-3.9 171.13 0ZM166.03-36.85L171.13-36.85 170.58-32.95 166.83-33.75Q166.43-33.85 166.23-34.1 166.03-34.35 166.03-34.8L166.03-34.8 166.03-36.85ZM177.68 0L172.58 0 173.13-3.9 176.88-3.1Q177.28-3.05 177.48-2.78 177.68-2.5 177.68-2.05L177.68-2.05 177.68 0Z" opacity="1" transform="matrix(1,0,0,1,0,0)" fill="#ffffff" class="wordmark-text-0" data-fill-palette-color="primary" id="text-0"></path></svg></g></svg></g></svg></g></svg></g><g><svg viewBox="0 0 184.07392299010397 184.07392299010397" height="184.07392299010397" width="184.07392299010397"><g><svg></svg></g><g id="icon-0"><svg viewBox="0 0 184.07392299010397 184.07392299010397" height="184.07392299010397" width="184.07392299010397"><g><path d="M0 92.037c0-50.831 41.206-92.037 92.037-92.037 50.831 0 92.037 41.206 92.037 92.037 0 50.831-41.206 92.037-92.037 92.037-50.831 0-92.037-41.206-92.037-92.037zM92.037 177.188c47.028 0 85.151-38.123 85.151-85.151 0-47.028-38.123-85.151-85.151-85.151-47.028 0-85.151 38.123-85.151 85.151 0 47.028 38.123 85.151 85.151 85.151z" data-fill-palette-color="accent" fill="#ffffff" stroke="transparent"></path><ellipse rx="91.11659188010147" ry="91.11659188010147" cx="92.03696149505198" cy="92.03696149505198" fill="#ffffff" stroke="transparent" stroke-width="0" fill-opacity="1" data-fill-palette-color="accent"></ellipse></g><g transform="matrix(1,0,0,1,40.46936124195713,40.46807179406124)"><svg viewBox="0 0 103.1352005061897 103.13777940198149" height="103.13777940198149" width="103.1352005061897"><g><svg xmlns="http://www.w3.org/2000/svg" xmlns:xlink="http://www.w3.org/1999/xlink" version="1.1" x="0" y="0" viewBox="10.008 10.007 79.98400000000001 79.98599999999999" enable-background="new 0 0 100 100" xml:space="preserve" height="103.13777940198149" width="103.1352005061897" class="icon-dxe-0" data-fill-palette-color="quaternary" id="dxe-0"><path d="M50 10.007C27.913 10.007 10.008 27.914 10.008 50S27.913 89.993 50 89.993C72.088 89.993 89.992 72.086 89.992 50S72.088 10.007 50 10.007M55 79.568V50H45V79.568C30.835 77.18 20.008 64.834 20.008 50 20.008 33.462 33.463 20.007 50 20.007S79.992 33.462 79.992 50C79.992 64.834 69.165 77.18 55 79.568" fill="#2979ff" data-fill-palette-color="quaternary"></path><path d="M66.85 64.961L59.519 58.16A12.93 12.93 0 0 0 62.978 49.34C62.978 42.184 57.157 36.361 50 36.361 42.844 36.361 37.022 42.183 37.022 49.34 37.022 52.623 38.251 55.756 40.481 58.16L33.15 64.961A22.9 22.9 0 0 1 27.022 49.34C27.022 36.67 37.33 26.361 50 26.361S72.978 36.67 72.978 49.34A22.9 22.9 0 0 1 66.85 64.961" fill="#2979ff" data-fill-palette-color="quaternary"></path></svg></g></svg></g></svg></g></svg></g></svg></g><defs></defs></svg><rect width="395.52" height="118.25773809118274" fill="none" stroke="none" visibility="hidden"></rect></g></svg></g></svg>